<?xml version="1.0" encoding="UTF-8"?>
<svg xmlns="http://www.w3.org/2000/svg" viewBox="0 0 1203 944">
  <defs>
    <linearGradient id="brand-gradient" x1="20.94" y1="802.33" x2="1182.06" y2="802.33" gradientUnits="userSpaceOnUse">
      <stop offset="0" stop-color="#351d62"/>
      <stop offset=".08" stop-color="#301a5c"/>
      <stop offset=".31" stop-color="#261450"/>
      <stop offset=".55" stop-color="#23134d"/>
      <stop offset=".8" stop-color="#24134e"/>
      <stop offset=".88" stop-color="#2a1655"/>
      <stop offset=".95" stop-color="#341c61"/>
      <stop offset=".98" stop-color="#3d216c"/>
    </linearGradient>
  </defs>
  <path fill="url(#brand-gradient)" d="M1182.03,910.58c.42,3.36-3.62,1.33-5.49.99-66.91-12.43-135.33-28.45-201.86-43.35-124.34-27.85-248.14-58.46-372.28-87.15-144.62,33.33-288.76,69.06-433.58,101.58-49.02,11.01-98.48,22.39-147.88,30.63,189.94-83.45,385.2-154.44,581.46-221.87,195.01,68.26,389.61,138.1,579.63,219.18Z"/>
  <path fill="url(#brand-gradient)" d="M839.49,380.5l-237.08-246.97-437.2,469.65c-2.79,2.48-1.76-1.83-1.81-3.6-.22-7.77-1.44-17.62,2.78-24.29,88-111.51,175.08-223.77,264.1-334.47,53.06-65.98,110.62-144.74,167.68-205.62,1.09-1.16,1.65-2.88,1.78-4.46l4.52,1.75,235.24,289.41v58.6Z"/>
  <path fill="url(#brand-gradient)" d="M1026.97,638.31l-424.57-367.77-439.02,383.09.38-21.26c89.79-95.06,184.87-185.62,278.23-277.07,52.86-51.77,104.69-104.55,158.86-154.97,1.52-.26,9.58,6.34,11.49,7.96,52.06,44.21,106.31,99.09,155.98,146.92,87.55,84.3,172.59,171.22,256.97,258.67l1.69,24.44Z"/>
  <path fill="url(#brand-gradient)" d="M1026.98,690.59l-424.58-295.65-439.02,309.18.04-19.79,2.61-4.6,436.37-347.3c142.32,108.81,282.42,220.53,421.95,332.88,5.31,5.99,1.61,17.53,2.64,25.29Z"/>
  <polygon fill="url(#brand-gradient)" points="1026.7 766.61 1026.1 789.75 602.4 625.93 163.41 795.17 165.18 774.42 602.4 564.53 1026.7 766.61"/>
  <path fill="url(#brand-gradient)" d="M1026.62,718l-.51,23.07-423.69-232.45-439,243.28,1.8-22.52,437.21-278.45c143.29,85.96,282.81,178.08,424.2,267.07Z"/>
  <polygon fill="url(#brand-gradient)" points="862.93 241.67 977.38 358.89 978.4 514.73 1024.26 571.64 1025.17 587.83 862.93 406.64 862.93 241.67"/>
</svg>
